<svg enable-background="new 0 0 64 64" height="64" viewBox="0 0 64 64" width="64" xmlns="http://www.w3.org/2000/svg"><path d="m57 40v.002h-1v-10.002c.553 0 1-.447 1-1v-4c0-13.807-11.193-25-25-25s-25 11.193-25 25v4c0 .553.447 1 1 1v10h-1c-3.866 0-7 3.134-7 7v10.002c0 3.865 3.134 7 7 7v-.002h5c2.211 0 4-1.789 4-4v-16c0-1.479-.809-2.754-2-3.445v-10.555c.553 0 1-.447 1-1v-4c0-9.389 7.611-17 17-17s17 7.611 17 17v4c0 .553.447 1 1 1v10.555c-1.191.693-2 1.968-2 3.447v16c0 2.211 1.789 4 4 4h5c3.866 0 7-3.135 7-7v-10.002c0-3.866-3.134-7-7-7zm-55 17.002v-10.002c0-2.419 1.719-4.436 4-4.899v19.8c-2.282-.464-4-2.481-4-4.899zm5 5c-.003 0-.007-.002-.01-.002h.01zm7-2.002c0 1.104-.896 2-2 2h-4v-20h4c1.104 0 2 .896 2 2zm-2-20h-2v-10h2zm20-34c-10.493 0-19 8.506-19 19v3h-4v-3c0-12.703 10.298-23 23-23s23 10.297 23 23v3h-4v-3c0-10.494-8.507-19-19-19zm20 24h2v10.002h-2zm0 32.002c-1.104 0-2-.896-2-2v-16c0-1.105.896-2 2-2h4v20zm10-5c0 2.418-1.719 4.435-4 4.898v-19.8c2.282.464 4 2.481 4 4.899z" fill="#394240"/><path d="m7 62.002-.01-.002h.01z" fill="#45aab8"/><path d="m32 6c-10.493 0-19 8.506-19 19v3h-4v-3c0-12.703 10.298-23 23-23s23 10.297 23 23v3h-4v-3c0-10.494-8.507-19-19-19z" fill="#f76d57"/><path d="m10 30h2v10h-2z" fill="#b4ccb9"/><path d="m52 30h2v10.002h-2z" fill="#b4ccb9"/><g fill="#45aab8"><path d="m2 47v10.002c0 2.418 1.718 4.435 4 4.898v-19.8c-2.281.464-4 2.481-4 4.9z"/><path d="m12 42h-4v20h4c1.104 0 2-.896 2-2v-16c0-1.104-.896-2-2-2z"/><path d="m50 44.002v16c0 1.104.896 2 2 2h4v-20h-4c-1.104 0-2 .894-2 2z"/><path d="m58 42.101v19.8c2.281-.464 4-2.48 4-4.898v-10.003c0-2.418-1.718-4.436-4-4.899z"/></g><g opacity=".2"><path d="m2 47v10.002c0 2.418 1.718 4.435 4 4.898v-19.8c-2.281.464-4 2.481-4 4.9z"/><path d="m58 42.101v19.8c2.281-.464 4-2.48 4-4.898v-10.003c0-2.418-1.718-4.436-4-4.899z"/></g></svg>