<svg enable-background="new 0 0 64 64" height="64" viewBox="0 0 64 64" width="64" xmlns="http://www.w3.org/2000/svg"><path d="m60 0h-56c-2.211 0-4 1.789-4 4v40c0 2.211 1.789 4 4 4h22v12h-8c-1.105 0-2 .895-2 2s.895 2 2 2h28c1.105 0 2-.895 2-2s-.895-2-2-2h-8v-12h22c2.211 0 4-1.789 4-4v-40c0-2.211-1.789-4-4-4zm-26 60h-4v-12h4zm26-18c0 1.105-.895 2-2 2h-52c-1.105 0-2-.895-2-2v-2h56zm0-6h-56v-30c0-1.105.895-2 2-2h52c1.105 0 2 .895 2 2z" fill="#394240"/><path d="m4 6v30h56v-30c0-1.105-.895-2-2-2h-52c-1.105 0-2 .895-2 2z" fill="#b4ccb9"/><path d="m4 40v2c0 1.105.895 2 2 2h52c1.105 0 2-.895 2-2v-2z" fill="#506c7f"/><path d="m30 48h4v12h-4z" fill="#506c7f"/><path d="m30 48h4v12h-4z" opacity=".3"/></svg>