<svg enable-background="new 0 0 64 64" height="64" viewBox="0 0 64 64" width="64" xmlns="http://www.w3.org/2000/svg"><path d="m43.025 2.123c1.039-.379 2.186.156 2.564 1.195l3.161 8.682h-6.098c-.826-2.329-3.041-4-5.652-4s-4.826 1.672-5.65 4h-15.465z" fill="#f9ebb2"/><path d="m40.445 12h-6.891c.693-1.189 1.969-2 3.445-2s2.753.81 3.446 2z" fill="#f76d57"/><path d="m53.463 6.394c-.527-.471-1.342-.4-1.348-.4-.07.006-1.299.134-3.301.338l2.065 5.668h3.121v-4c0-.747-.18-1.288-.537-1.606z" fill="#506c7f"/><path d="m2.658 12.248c.421-.151.869-.248 1.342-.248h6.038l6.351-2.311c-5.357.561-9.894 1.039-12.278 1.305-.679.076-1.139.605-1.453 1.254z" fill="#506c7f"/><path d="m58 60c0 1.105-.895 2-2 2h-52c-1.104 0-2-.895-2-2v-44c0-1.104.896-2 2-2h52c1.105 0 2 .896 2 2v16h-16c-1.105 0-2 .895-2 2v8c0 1.105.895 2 2 2h16z" fill="#45aab8"/><path d="m62 41c0 .553-.447 1-1 1h-18c-.553 0-1-.447-1-1v-6c0-.553.447-1 1-1h18c.553 0 1 .447 1 1z" fill="#b4ccb9"/><g fill="#394240"><path d="m62 32h-2v-16c0-2.211-1.789-4-4-4v-4c0-1.342-.404-2.385-1.205-3.098-1.186-1.059-2.736-.91-2.896-.896-.072.006-1.484.152-3.789.389l-.641-1.76c-.756-2.078-3.049-3.148-5.127-2.391l-18.211 6.627c-8.596.892-16.734 1.746-20.241 2.134-2.939.327-3.828 3.903-3.89 5.965-.003.133 0 45.03 0 45.03 0 2.211 1.789 4 4 4h52c2.211 0 4-1.789 4-4v-16h2c1.105 0 2-.895 2-2v-8c0-1.105-.895-2-2-2zm-9.885-26.006c.006 0 .82-.07 1.348.4.357.318.537.859.537 1.606v4h-3.121l-2.064-5.668c2.001-.204 3.23-.332 3.3-.338zm-9.09-3.871c1.039-.379 2.186.156 2.564 1.195l3.161 8.682h-6.098c-.826-2.329-3.041-4-5.652-4s-4.826 1.672-5.65 4h-15.465zm-2.58 9.877h-6.891c.693-1.189 1.969-2 3.445-2s2.753.81 3.446 2zm-36.334-1.006c2.385-.266 6.921-.744 12.278-1.305l-6.35 2.311h-6.039c-.474 0-.922.098-1.343.248.315-.649.775-1.178 1.454-1.254zm53.889 49.006c0 1.105-.895 2-2 2h-52c-1.104 0-2-.895-2-2v-44c0-1.104.896-2 2-2h52c1.105 0 2 .896 2 2v16h-16c-1.105 0-2 .895-2 2v8c0 1.105.895 2 2 2h16zm4-19c0 .553-.447 1-1 1h-18c-.553 0-1-.447-1-1v-6c0-.553.447-1 1-1h18c.553 0 1 .447 1 1z"/><circle cx="46" cy="38" r="2"/><path d="m53 20h2c.553 0 1-.447 1-1s-.447-1-1-1h-2c-.553 0-1 .447-1 1s.447 1 1 1z"/><path d="m47 20h2c.553 0 1-.447 1-1s-.447-1-1-1h-2c-.553 0-1 .447-1 1s.447 1 1 1z"/><path d="m41 20h2c.553 0 1-.447 1-1s-.447-1-1-1h-2c-.553 0-1 .447-1 1s.447 1 1 1z"/><path d="m37 18h-2c-.553 0-1 .447-1 1s.447 1 1 1h2c.553 0 1-.447 1-1s-.447-1-1-1z"/><path d="m31 18h-2c-.553 0-1 .447-1 1s.447 1 1 1h2c.553 0 1-.447 1-1s-.447-1-1-1z"/><path d="m25 18h-2c-.553 0-1 .447-1 1s.447 1 1 1h2c.553 0 1-.447 1-1s-.447-1-1-1z"/><path d="m19 18h-2c-.552 0-1 .447-1 1s.447 1 1 1h2c.553 0 1-.447 1-1s-.447-1-1-1z"/><path d="m13 18h-2c-.553 0-1 .447-1 1s.447 1 1 1h2c.553 0 1-.447 1-1s-.447-1-1-1z"/><path d="m7 18h-2c-.553 0-1 .447-1 1s.447 1 1 1h2c.553 0 1-.447 1-1s-.447-1-1-1z"/><path d="m53 58h2c.553 0 1-.447 1-1s-.447-1-1-1h-2c-.553 0-1 .447-1 1s.447 1 1 1z"/><path d="m47 58h2c.553 0 1-.447 1-1s-.447-1-1-1h-2c-.553 0-1 .447-1 1s.447 1 1 1z"/><path d="m40 57c0 .553.447 1 1 1h2c.553 0 1-.447 1-1s-.447-1-1-1h-2c-.553 0-1 .447-1 1z"/><path d="m37 56h-2c-.553 0-1 .447-1 1s.447 1 1 1h2c.553 0 1-.447 1-1s-.447-1-1-1z"/><path d="m31 56h-2c-.553 0-1 .447-1 1s.447 1 1 1h2c.553 0 1-.447 1-1s-.447-1-1-1z"/><path d="m25 56h-2c-.553 0-1 .447-1 1s.447 1 1 1h2c.553 0 1-.447 1-1s-.447-1-1-1z"/><path d="m19 56h-2c-.552 0-1 .447-1 1s.447 1 1 1h2c.553 0 1-.447 1-1s-.447-1-1-1z"/><path d="m13 56h-2c-.553 0-1 .447-1 1s.447 1 1 1h2c.553 0 1-.447 1-1s-.447-1-1-1z"/><path d="m7 56h-2c-.553 0-1 .447-1 1s.447 1 1 1h2c.553 0 1-.447 1-1s-.447-1-1-1z"/></g></svg>