<svg enable-background="new 0 0 64 64" height="64" viewBox="0 0 64 64" width="64" xmlns="http://www.w3.org/2000/svg"><path d="m32 0c-17.672 0-32 14.328-32 32s14.328 32 32 32 32-14.328 32-32-14.328-32-32-32zm0 60c-15.465 0-28-12.535-28-28s12.535-28 28-28 28 12.535 28 28-12.535 28-28 28z" fill="#394240"/><circle cx="32" cy="32" fill="#f76d57" r="28"/><g fill="#394240"><path d="m56 30h-2.004c-1.105 0-2 .895-2 2s.895 2 2 2h2.004c1.105 0 2-.895 2-2s-.895-2-2-2z"/><path d="m47.559 13.613-1.418 1.418c-.781.781-.781 2.047 0 2.828.781.783 2.047.781 2.828 0l1.418-1.418c.781-.781.781-2.045 0-2.828-.782-.781-2.047-.781-2.828 0z"/><path d="m16.441 13.611c-.781-.781-2.043-.781-2.828 0-.781.783-.781 2.047 0 2.828l1.418 1.416c.781.783 2.047.785 2.828.002.783-.779.781-2.047 0-2.826z"/><path d="m10.004 30-2.008-.002c-1.105.002-1.996.893-2 2 .002 1.105.895 1.998 2 2l2.004-.002c1.105 0 2.004-.891 2.002-1.998.002-1.105-.895-2-1.998-1.998z"/><path d="m15.033 46.139-1.422 1.418c-.779.783-.779 2.043.002 2.83.781.779 2.043.777 2.828 0l1.414-1.42c.781-.781.789-2.045.004-2.828-.781-.784-2.047-.784-2.826 0z"/><path d="m32 51.996c-1.107-.002-2.002.893-2 2l-.002 2.006c.002 1.104.895 1.996 2.002 2 1.105-.002 1.996-.896 2-2l-.004-2.004c0-1.103-.887-2.002-1.996-2.002z"/><path d="m48.967 46.143c-.779-.779-2.041-.787-2.826-.004-.785.781-.785 2.047 0 2.828l1.416 1.42c.783.777 2.045.779 2.83-.002.781-.783.777-2.045 0-2.828z"/><path d="m37.4 34.572c.373-.783.6-1.648.6-2.572 0-2.607-1.676-4.805-4-5.633v-16.367c0-1.105-.895-2-2-2s-2 .895-2 2v16.367c-2.324.828-4 3.025-4 5.633 0 3.312 2.688 6 6 6 .924 0 1.789-.227 2.572-.6l6.779 6.779c.783.781 2.039.773 2.822-.01.781-.781.742-2.084-.041-2.865zm-5.4-.572c-1.105 0-2-.895-2-2s.895-2 2-2 2 .895 2 2-.895 2-2 2z"/></g><circle cx="32" cy="32" fill="#f9ebb2" r="2"/></svg>